<svg xmlns="http://www.w3.org/2000/svg" viewBox="0 0 200 190"><defs><clipPath id="h"><polygon points="100,184 24,119 10,72 18,35 45,13 78,17 100,40 122,17 155,13 182,35 190,72 176,119"/></clipPath><linearGradient id="g" x1="0" y1="0" x2="1" y2="1"><stop stop-color="#e8c0ff"/><stop offset=".45" stop-color="#ad5be0"/><stop offset="1" stop-color="#672493"/></linearGradient></defs><g clip-path="url(#h)"><rect width="200" height="190" fill="url(#g)"/><polygon points="18,35 45,13 65,56 10,72" fill="#e4b6ff"/><polygon points="45,13 78,17 91,60 65,56" fill="#bd6be6"/><polygon points="78,17 100,40 91,60" fill="#8f3fc2"/><polygon points="100,40 122,17 109,62" fill="#f1d2ff"/><polygon points="122,17 155,13 137,57 109,62" fill="#a852d7"/><polygon points="155,13 182,35 137,57" fill="#7930a8"/><polygon points="10,72 65,56 53,104 24,119" fill="#8f3ebd"/><polygon points="65,56 91,60 76,101 53,104" fill="#d59bf2"/><polygon points="91,60 100,99 76,101" fill="#6d2899"/><polygon points="109,62 137,57 146,103 100,99" fill="#b763dd"/><polygon points="137,57 190,72 176,119 146,103" fill="#5d2186"/><polygon points="24,119 53,104 100,184 64,144" fill="#7e2eaa"/><polygon points="53,104 76,101 100,184" fill="#9e46ca"/><polygon points="100,99 146,103 100,184" fill="#68258f"/><polygon points="146,103 176,119 100,184" fill="#8b39b8"/><path d="M100 47 L108 78 L142 66 L117 91 L144 105 L111 101 L102 137 L92 103 L57 116 L82 91 L57 70 L90 80 Z" fill="#fff" opacity=".7"/><polygon points="35,43 53,30 61,46 42,55" fill="#fff" opacity=".5"/></g><polygon points="100,184 24,119 10,72 18,35 45,13 78,17 100,40 122,17 155,13 182,35 190,72 176,119" fill="none" stroke="#56207b" stroke-width="3"/></svg>